# This file uses centimeters as units for non-parametric coordinates.

mtllib crayonbox-color.mtl
g default
v -4.035827 0.000000 -0.614024
v 1.379565 0.000000 -0.614024
v -4.035827 7.109833 -0.614024
v 1.379565 7.109833 -0.614024
v -4.035827 7.109833 -1.494945
v 1.379565 7.109833 -1.494945
v -4.035827 0.000000 -1.494945
v 1.379565 0.000000 -1.494945
v 1.379565 4.671010 -1.494945
v -4.035827 4.671010 -1.494945
v 1.379565 4.574352 -1.494945
v -4.035827 4.574352 -1.494945
v 1.264100 4.714558 -1.469490
v -3.920362 4.714558 -1.469490
v -3.959572 7.109833 -0.614024
v -3.959572 0.000000 -0.614024
v -3.959572 0.000000 -1.494945
v -3.959572 4.574352 -1.494945
v -3.847359 4.714558 -1.469490
v -3.959572 4.671010 -1.494945
v -3.959572 7.109833 -1.494945
v 1.329458 7.109833 -0.614024
v 1.329458 0.000000 -0.614024
v 1.329458 0.000000 -1.494945
v 1.329458 4.574352 -1.494945
v 1.216130 4.714558 -1.469491
v 1.329458 4.671010 -1.494945
v 1.329458 7.109833 -1.494945
v -4.035827 7.109833 -1.462766
v -3.959572 7.109833 -1.462766
v 1.329458 7.109833 -1.462766
v 1.379565 7.109833 -1.462766
v 1.329458 7.109833 -0.640143
v 1.379565 7.109833 -0.640143
v 1.379565 4.746061 -1.494945
v 1.329458 4.746061 -1.494945
v -3.959572 4.746061 -1.494945
v -4.035827 4.746061 -1.494945
v -4.035827 7.109833 -0.640143
v -3.959572 7.109833 -0.640143
vt 0.097014 0.148869
vt 0.097085 0.737102
vt 0.518948 0.720453
vt 0.519102 0.196272
vt 0.100604 0.727380
vt 0.473284 0.729565
vt 0.101625 0.548004
vt 0.474195 0.548987
vt 0.475853 0.139339
vt 0.100695 0.138076
vt 0.153892 -0.023110
vt 0.403891 -0.022614
vt 0.066839 0.569530
vt 0.066906 0.803432
vt 0.478013 0.559087
vt 0.478106 0.168578
vt 0.153073 0.389564
vt 0.403073 0.390060
vt 0.475374 0.548900
vt 0.100217 0.547637
vt -0.097769 0.813717
vt 0.478011 0.523590
vt 0.477961 0.775539
vt 0.652230 0.815205
vt 0.066837 0.560259
vt 0.066711 0.121543
vt 0.882968 0.753467
vt 0.883700 0.150108
vt 0.400371 0.034910
vt 0.470570 0.094602
vt 0.470091 0.562086
vt 0.399552 0.390053
vt 0.468949 0.548973
vt 0.468036 0.729534
vt 0.517631 0.737256
vt 0.517604 0.148880
vt 0.156205 0.034693
vt 0.104166 0.094014
vt 0.103688 0.560779
vt 0.155386 0.389569
vt 0.105072 0.548013
vt 0.104052 0.727400
vt 0.474952 0.727634
vt 0.479458 0.773527
vt 0.271045 0.762681
vt 0.111974 0.755772
vt 0.100476 0.727735
vt 0.068009 0.801009
vt 0.280734 0.779784
vt 0.097190 0.736814
vt 0.096190 0.739069
vt 0.101594 0.553524
vt 0.066841 0.576728
vt 0.105041 0.553534
vt 0.468921 0.554530
vt 0.474167 0.554544
vt 0.478009 0.573746
vt 0.517594 0.678271
vt 0.517733 0.722087
vt 0.440357 0.820995
vn 0.000000 0.000000 1.000000
vn 0.000000 0.000000 1.000000
vn 0.000000 0.000000 1.000000
vn 0.000000 0.000000 1.000000
vn -0.000000 1.000000 0.000000
vn -0.000000 1.000000 0.000000
vn 0.000010 1.000000 0.000000
vn 0.000000 1.000000 0.000000
vn -0.000000 0.000000 -1.000000
vn 0.000000 0.000000 -1.000000
vn 0.000002 0.000000 -1.000000
vn -0.000000 0.000000 -1.000000
vn 0.000000 -1.000000 0.000000
vn 0.000000 -1.000000 0.000000
vn 0.000000 -1.000000 0.000000
vn 0.000000 -1.000000 0.000000
vn 1.000000 -0.000000 0.000000
vn 1.000000 -0.000000 0.000000
vn 1.000000 0.000000 0.000000
vn 1.000000 0.000000 0.000000
vn -1.000000 0.000000 0.000000
vn -1.000000 0.000023 -0.000030
vn -0.999992 0.002939 -0.002543
vn -1.000000 0.000000 0.000000
vn 0.000000 -0.504632 0.863335
vn 0.000000 -0.015031 -0.999887
vn 0.000000 -0.112647 -0.993635
vn 0.000000 -0.504632 0.863335
vn -0.000000 0.000000 -1.000000
vn 0.000000 0.010836 -0.999941
vn 0.000000 0.000000 -1.000000
vn -0.000000 0.000000 -1.000000
vn 1.000000 0.000023 -0.000030
vn 0.984680 0.111656 -0.133936
vn 0.998048 -0.048005 0.039952
vn -1.000000 -0.000000 0.000000
vn -1.000000 -0.000000 0.000000
vn -1.000000 -0.000000 0.000000
vn -1.000000 0.000000 0.000000
vn -0.999992 0.002939 -0.002543
vn -1.000000 0.000023 -0.000030
vn -0.984680 0.111657 -0.133936
vn 0.999992 0.002939 -0.002543
vn 1.000000 0.000023 -0.000030
vn 1.000000 0.000000 0.000000
vn 1.000000 0.000000 0.000000
vn -0.000000 0.178630 -0.983916
vn 0.000000 -0.112647 -0.993635
vn 0.000000 0.010836 -0.999941
vn -0.000000 0.178630 -0.983916
vn 0.999992 0.002939 -0.002543
vn 0.984680 0.111656 -0.133936
vn 1.000000 0.000023 -0.000030
vn -0.984680 0.111657 -0.133936
vn -1.000000 0.000023 -0.000030
vn -0.998048 -0.048005 0.039952
vn 0.000000 0.000000 1.000000
vn 0.000000 0.000000 1.000000
vn 0.000000 0.000000 1.000000
vn 0.000000 0.000000 1.000000
vn 0.000000 -1.000000 0.000000
vn 0.000000 -1.000000 0.000000
vn 0.000000 -1.000000 0.000000
vn 0.000000 -1.000000 0.000000
vn 0.000000 0.010836 -0.999941
vn -0.000000 0.000000 -1.000000
vn -0.000000 0.000000 -1.000000
vn 0.000000 0.000000 -1.000000
vn 0.000000 -0.112647 -0.993635
vn -0.000000 0.178630 -0.983916
vn -0.000000 0.178630 -0.983916
vn 0.000000 0.010836 -0.999941
vn 0.000000 -0.015031 -0.999887
vn 0.000000 -0.504632 0.863335
vn 0.000000 -0.504632 0.863335
vn 0.000000 -0.112647 -0.993635
vn 0.000000 0.000000 -1.000000
vn -0.000000 0.000000 -1.000000
vn -0.000000 0.000000 -1.000000
vn 0.000000 0.000000 -1.000000
vn 0.000000 1.000000 0.000000
vn -0.000000 1.000000 0.000000
vn -0.000000 1.000000 0.000000
vn 0.000000 1.000000 0.000000
vn 0.000000 1.000000 0.000000
vn -0.000000 1.000000 0.000000
vn -0.000000 1.000000 0.000000
vn 0.000010 1.000000 0.000000
vn 0.000000 1.000000 0.000000
vn 0.000000 1.000000 0.000000
vn 1.000000 0.000023 -0.000030
vn 0.998048 -0.048005 0.039952
vn 0.000000 -0.015031 -0.999887
vn -0.000000 0.000000 -1.000000
vn -0.000000 0.000000 -1.000000
vn 0.000000 -0.015031 -0.999887
vn -0.998048 -0.048005 0.039952
vn -1.000000 0.000023 -0.000030
vn 0.000000 1.000000 0.000000
vn -0.000000 1.000000 0.000000
s 1
g pCube1
usemtl crayonbox_initialShadingGroup
f 2/1/1 4/2/2 22/35/3 23/36/4
s 2
f 28/42/5 31/46/6 32/47/7 6/5/8
s 3
f 28/42/9 6/5/10 35/52/11 36/54/12
s 4
f 24/38/13 8/10/14 2/11/15 23/37/16
s 5
f 34/51/17 35/53/18 6/14/19 32/48/20
s off
f 1/4/21 3/3/22 12/15/23 7/16/24
s 6
f 27/41/25 9/7/26 13/17/27 26/40/28
s 7
f 25/39/29 11/20/30 8/10/31 24/38/32
s off
f 4/2/33 13/21/34 9/13/35
s 8
f 38/57/36 39/59/37 29/44/38 5/23/39
s off
f 12/15/40 3/3/41 14/24/42
f 11/25/43 4/2/44 2/1/45 8/26/46
s 9
f 26/40/47 13/17/48 11/20/49 25/39/50
s off
f 11/25/51 13/21/52 4/2/53
f 14/24/54 3/3/55 10/22/56
s 1
f 16/28/57 15/27/58 3/3/59 1/4/60
s 4
f 7/9/61 17/30/62 16/29/63 1/12/64
s 7
f 12/19/65 18/31/66 17/30/67 7/9/68
s 9
f 14/18/69 19/32/70 18/31/71 12/19/72
s 6
f 10/8/73 20/33/74 19/32/75 14/18/76
s 3
f 5/6/77 21/34/78 37/55/79 38/56/80
s 2
f 29/43/81 30/45/82 21/34/83 5/6/84
s 1
f 23/36/4 22/35/3 15/27/58 16/28/57
s 4
f 17/30/62 24/38/13 23/37/16 16/29/63
s 7
f 18/31/66 25/39/29 24/38/32 17/30/67
s 9
f 19/32/70 26/40/47 25/39/50 18/31/71
s 6
f 20/33/74 27/41/25 26/40/28 19/32/75
s 3
f 21/34/78 28/42/9 36/54/12 37/55/79
s 2
f 21/34/83 30/45/82 31/46/6 28/42/5
f 39/58/85 40/60/86 30/45/82 29/43/81
f 31/46/6 30/45/82 40/60/86 33/49/87
f 32/47/7 31/46/6 33/49/87 34/50/88
f 34/50/88 33/49/87 22/35/89 4/2/90
s 5
f 4/2/91 9/13/92 35/53/18 34/51/17
s 3
f 36/54/12 35/52/11 9/7/93 27/41/94
f 37/55/79 36/54/12 27/41/94 20/33/95
f 38/56/80 37/55/79 20/33/95 10/8/96
s 8
f 10/22/97 3/3/98 39/59/37 38/57/36
s 2
f 3/3/99 15/27/100 40/60/86 39/58/85
f 33/49/87 40/60/86 15/27/100 22/35/89
