# This file uses centimeters as units for non-parametric coordinates.

mtllib crayonbox-color-2.mtl
g default
v -2.896070 -3.519320 0.372136
v 2.519322 -3.519320 0.372136
v -2.896070 3.590512 0.372136
v 2.519322 3.590512 0.372136
v -2.896070 3.590512 -0.508785
v 2.519322 3.590512 -0.508785
v -2.896070 -3.519320 -0.508785
v 2.519322 -3.519320 -0.508785
v 2.519322 1.151690 -0.508785
v -2.896070 1.151690 -0.508785
v 2.519322 1.055031 -0.508785
v -2.896070 1.055031 -0.508785
v 2.403857 1.195238 -0.483330
v -2.780605 1.195238 -0.483330
v -2.819815 3.590512 0.372136
v -2.819815 -3.519320 0.372136
v -2.819815 -3.519320 -0.508785
v -2.819815 1.055031 -0.508785
v -2.707602 1.195238 -0.483330
v -2.819815 1.151690 -0.508785
v -2.819815 3.590512 -0.508785
v 2.469215 3.590512 0.372136
v 2.469215 -3.519320 0.372136
v 2.469215 -3.519320 -0.508785
v 2.469215 1.055031 -0.508785
v 2.355887 1.195238 -0.483331
v 2.469215 1.151690 -0.508785
v 2.469215 3.590512 -0.508785
v -2.896070 3.590512 -0.476606
v -2.819815 3.590512 -0.476606
v 2.469215 3.590512 -0.476606
v 2.519322 3.590512 -0.476606
v 2.469215 3.590512 0.346017
v 2.519322 3.590512 0.346017
v 2.519322 1.226740 -0.508785
v 2.469215 1.226740 -0.508785
v -2.819815 1.226740 -0.508785
v -2.896070 1.226740 -0.508785
v -2.896070 3.590512 0.346017
v -2.819815 3.590512 0.346017
vt 0.097014 0.148869
vt 0.097085 0.737102
vt 0.517631 0.737256
vt 0.517604 0.148880
vt 0.104052 0.727400
vt 0.111974 0.755772
vt 0.100476 0.727735
vt 0.100604 0.727380
vt 0.101594 0.553524
vt 0.105041 0.553534
vt 0.104166 0.094014
vt 0.100695 0.138076
vt 0.153892 -0.023110
vt 0.156205 0.034693
vt 0.096190 0.739069
vt 0.066841 0.576728
vt 0.066906 0.803432
vt 0.068009 0.801009
vt 0.519102 0.196272
vt 0.518948 0.720453
vt 0.478013 0.559087
vt 0.478106 0.168578
vt 0.105072 0.548013
vt 0.101625 0.548004
vt 0.153073 0.389564
vt 0.155386 0.389569
vt 0.103688 0.560779
vt 0.100217 0.547637
vt -0.097769 0.813717
vt 0.066839 0.569530
vt 0.478009 0.573746
vt 0.517733 0.722087
vt 0.479458 0.773527
vt 0.477961 0.775539
vt 0.652230 0.815205
vt 0.066837 0.560259
vt 0.066711 0.121543
vt 0.478011 0.523590
vt 0.883700 0.150108
vt 0.882968 0.753467
vt 0.475853 0.139339
vt 0.470570 0.094602
vt 0.400371 0.034910
vt 0.403891 -0.022614
vt 0.475374 0.548900
vt 0.470091 0.562086
vt 0.403073 0.390060
vt 0.399552 0.390053
vt 0.474195 0.548987
vt 0.468949 0.548973
vt 0.473284 0.729565
vt 0.468036 0.729534
vt 0.468921 0.554530
vt 0.474167 0.554544
vt 0.474952 0.727634
vt 0.271045 0.762681
vt 0.517594 0.678271
vt 0.440357 0.820995
vt 0.280734 0.779784
vt 0.097190 0.736814
vn 0.000000 0.000000 1.000000
vn 0.000000 0.000000 1.000000
vn 0.000000 0.000000 1.000000
vn 0.000000 0.000000 1.000000
vn 0.000000 1.000000 0.000000
vn 0.000000 1.000000 0.000000
vn 0.000010 1.000000 0.000000
vn 0.000000 1.000000 0.000000
vn -0.000000 0.000000 -1.000000
vn 0.000000 0.000000 -1.000000
vn 0.000002 0.000000 -1.000000
vn -0.000000 0.000000 -1.000000
vn 0.000000 -1.000000 0.000000
vn 0.000000 -1.000000 0.000000
vn 0.000000 -1.000000 0.000000
vn 0.000000 -1.000000 0.000000
vn 1.000000 -0.000000 0.000000
vn 1.000000 -0.000000 0.000000
vn 1.000000 0.000000 0.000000
vn 1.000000 0.000000 0.000000
vn -1.000000 0.000000 0.000000
vn -1.000000 0.000023 -0.000030
vn -0.999992 0.002939 -0.002543
vn -1.000000 0.000000 0.000000
vn 0.000000 -0.504632 0.863335
vn 0.000000 -0.015031 -0.999887
vn 0.000000 -0.112647 -0.993635
vn 0.000000 -0.504632 0.863335
vn -0.000000 0.000000 -1.000000
vn 0.000000 0.010836 -0.999941
vn 0.000000 0.000000 -1.000000
vn -0.000000 0.000000 -1.000000
vn 1.000000 0.000023 -0.000030
vn 0.984680 0.111656 -0.133936
vn 0.998048 -0.048005 0.039952
vn -1.000000 0.000000 0.000000
vn -1.000000 0.000000 0.000000
vn -1.000000 0.000000 0.000000
vn -1.000000 0.000000 0.000000
vn -0.999992 0.002939 -0.002543
vn -1.000000 0.000023 -0.000030
vn -0.984680 0.111657 -0.133936
vn 0.999992 0.002939 -0.002543
vn 1.000000 0.000023 -0.000030
vn 1.000000 0.000000 0.000000
vn 1.000000 0.000000 0.000000
vn -0.000000 0.178630 -0.983916
vn 0.000000 -0.112647 -0.993635
vn 0.000000 0.010836 -0.999941
vn -0.000000 0.178630 -0.983916
vn 0.999992 0.002939 -0.002543
vn 0.984680 0.111656 -0.133936
vn 1.000000 0.000023 -0.000030
vn -0.984680 0.111657 -0.133936
vn -1.000000 0.000023 -0.000030
vn -0.998048 -0.048005 0.039952
vn 0.000000 0.000000 1.000000
vn 0.000000 0.000000 1.000000
vn 0.000000 0.000000 1.000000
vn 0.000000 0.000000 1.000000
vn 0.000000 -1.000000 0.000000
vn 0.000000 -1.000000 0.000000
vn 0.000000 -1.000000 0.000000
vn 0.000000 -1.000000 0.000000
vn 0.000000 0.010836 -0.999941
vn -0.000000 0.000000 -1.000000
vn -0.000000 0.000000 -1.000000
vn 0.000000 0.000000 -1.000000
vn 0.000000 -0.112647 -0.993635
vn -0.000000 0.178630 -0.983916
vn -0.000000 0.178630 -0.983916
vn 0.000000 0.010836 -0.999941
vn 0.000000 -0.015031 -0.999887
vn 0.000000 -0.504632 0.863335
vn 0.000000 -0.504632 0.863335
vn 0.000000 -0.112647 -0.993635
vn 0.000000 0.000000 -1.000000
vn -0.000000 0.000000 -1.000000
vn -0.000000 0.000000 -1.000000
vn 0.000000 0.000000 -1.000000
vn 0.000000 1.000000 0.000000
vn 0.000000 1.000000 0.000000
vn 0.000000 1.000000 0.000000
vn 0.000000 1.000000 0.000000
vn 0.000000 0.000000 1.000000
vn 0.000000 0.000000 1.000000
vn 0.000000 0.000000 1.000000
vn 0.000000 0.000000 1.000000
vn 0.000000 -1.000000 0.000000
vn 0.000000 -1.000000 0.000000
vn 0.000000 -1.000000 0.000000
vn 0.000000 -1.000000 0.000000
vn -0.000000 0.000000 -1.000000
vn -0.000000 0.000000 -1.000000
vn -0.000000 0.000000 -1.000000
vn -0.000000 0.000000 -1.000000
vn -0.000000 0.178630 -0.983916
vn -0.000000 0.178630 -0.983916
vn -0.000000 0.178630 -0.983916
vn -0.000000 0.178630 -0.983916
vn 0.000000 -0.504632 0.863335
vn 0.000000 -0.504632 0.863335
vn 0.000000 -0.504632 0.863335
vn 0.000000 -0.504632 0.863335
vn -0.000000 0.000000 -1.000000
vn -0.000000 0.000000 -1.000000
vn -0.000000 0.000000 -1.000000
vn -0.000000 0.000000 -1.000000
vn 0.000000 1.000000 0.000000
vn 0.000000 1.000000 0.000000
vn 0.000000 1.000000 0.000000
vn 0.000000 1.000000 0.000000
vn 0.000000 1.000000 0.000000
vn 0.000000 1.000000 0.000000
vn 0.000000 1.000000 0.000000
vn 0.000000 1.000000 0.000000
vn 0.000000 1.000000 0.000000
vn 0.000000 1.000000 0.000000
vn 0.000000 1.000000 0.000000
vn 0.000000 1.000000 0.000000
vn 0.000010 1.000000 0.000000
vn 0.000000 1.000000 0.000000
vn 0.000000 1.000000 0.000000
vn 0.000010 1.000000 0.000000
vn 0.000010 1.000000 0.000000
vn 0.000000 1.000000 0.000000
vn 0.000000 1.000000 0.000000
vn 0.000000 1.000000 0.000000
vn 1.000000 0.000023 -0.000030
vn 0.998048 -0.048005 0.039952
vn 1.000000 -0.000000 0.000000
vn 1.000000 -0.000000 0.000000
vn -0.000000 0.000000 -1.000000
vn 0.000002 0.000000 -1.000000
vn 0.000000 -0.015031 -0.999887
vn -0.000000 0.000000 -1.000000
vn -0.000000 0.000000 -1.000000
vn -0.000000 0.000000 -1.000000
vn -0.000000 0.000000 -1.000000
vn -0.000000 0.000000 -1.000000
vn 0.000000 0.000000 -1.000000
vn -0.000000 0.000000 -1.000000
vn -0.000000 0.000000 -1.000000
vn 0.000000 -0.015031 -0.999887
vn -0.998048 -0.048005 0.039952
vn -1.000000 0.000023 -0.000030
vn -1.000000 0.000000 0.000000
vn -1.000000 0.000000 0.000000
vn 0.000000 1.000000 0.000000
vn 0.000000 1.000000 0.000000
vn 0.000000 1.000000 0.000000
vn 0.000000 1.000000 0.000000
vn 0.000000 1.000000 0.000000
vn 0.000000 1.000000 0.000000
vn 0.000000 1.000000 0.000000
vn 0.000000 1.000000 0.000000
s off
g pCube1
usemtl crayonbox_initialShadingGroup
f 2/1/1 4/2/2 22/3/3 23/4/4
f 28/5/5 31/6/6 32/7/7 6/8/8
f 28/5/9 6/8/10 35/9/11 36/10/12
f 24/11/13 8/12/14 2/13/15 23/14/16
f 34/15/17 35/16/18 6/17/19 32/18/20
f 1/19/21 3/20/22 12/21/23 7/22/24
f 27/23/25 9/24/26 13/25/27 26/26/28
f 25/27/29 11/28/30 8/12/31 24/11/32
f 4/2/33 13/29/34 9/30/35
f 38/31/36 39/32/37 29/33/38 5/34/39
f 12/21/40 3/20/41 14/35/42
f 11/36/43 4/2/44 2/1/45 8/37/46
f 26/26/47 13/25/48 11/28/49 25/27/50
f 11/36/51 13/29/52 4/2/53
f 14/35/54 3/20/55 10/38/56
f 16/39/57 15/40/58 3/20/59 1/19/60
f 7/41/61 17/42/62 16/43/63 1/44/64
f 12/45/65 18/46/66 17/42/67 7/41/68
f 14/47/69 19/48/70 18/46/71 12/45/72
f 10/49/73 20/50/74 19/48/75 14/47/76
f 5/51/77 21/52/78 37/53/79 38/54/80
f 29/55/81 30/56/82 21/52/83 5/51/84
f 23/4/85 22/3/86 15/40/87 16/39/88
f 17/42/89 24/11/90 23/14/91 16/43/92
f 18/46/93 25/27/94 24/11/95 17/42/96
f 19/48/97 26/26/98 25/27/99 18/46/100
f 20/50/101 27/23/102 26/26/103 19/48/104
f 21/52/105 28/5/106 36/10/107 37/53/108
f 21/52/109 30/56/110 31/6/111 28/5/112
f 39/57/113 40/58/114 30/56/115 29/55/116
f 31/6/117 30/56/118 40/58/119 33/59/120
f 32/7/121 31/6/122 33/59/123 34/60/124
f 34/60/125 33/59/126 22/3/127 4/2/128
f 4/2/129 9/30/130 35/16/131 34/15/132
f 36/10/133 35/9/134 9/24/135 27/23/136
f 37/53/137 36/10/138 27/23/139 20/50/140
f 38/54/141 37/53/142 20/50/143 10/49/144
f 10/38/145 3/20/146 39/32/147 38/31/148
f 3/20/149 15/40/150 40/58/151 39/57/152
f 33/59/153 40/58/154 15/40/155 22/3/156
